  0
SECTION
  2
HEADER
  9
$ACADVER
  1
AC1009
  9
$INSBASE
 10
0.0
 20
0.0
 30
0.0
  9
$EXTMIN
 10
0.0
 20
0.0
 30
0.0
  9
$EXTMAX
 10
0.0
 20
0.0
 30
0.0
  0
ENDSEC
  0
SECTION
  2
TABLES
  0
TABLE
  2
VPORT
 70
0
  0
ENDTAB
  0
TABLE
  2
LTYPE
 70
1
  0
LTYPE
  2
CONTINUOUS
 70
0
  3
Solid line
 72
65
 73
0
 40
0.0
  0
ENDTAB
  0
TABLE
  2
LAYER
 70
1
  0
LAYER
  2
0
 70
64
 62
7
  6
continuous
  0
ENDTAB
  0
TABLE
  2
STYLE
 70
1
  0
STYLE
  2
STANDARD
 70
0
 40
0
 41
1.0
 50
0.0
 71
0
 42
1
 3
ARIAL.TTF
 4

  0
ENDTAB
  0
TABLE
  2
VIEW
 70
0
  0
ENDTAB
  0
ENDSEC
  0
SECTION
  2
BLOCKS
  0
BLOCK
  8
0
  2
SKETCH
 70
0
 10
0.0
 20
0.0
 30
0.0
  3
SKETCH
  0
POLYLINE
  8
0
 62
7
 70
1
 66
1
 10
0.0
 20
0.0
 30
0.0
  0
VERTEX
  8
0
 10
-85.0
 20
-45.0
 30
0.0
  0
VERTEX
  8
0
 10
-85.0
 20
45.0
 30
0.0
 42
-0.414213562373
  0
VERTEX
  8
0
 10
-80.0
 20
50.0
 30
0.0
  0
VERTEX
  8
0
 10
80.0
 20
50.0
 30
0.0
 42
-0.414213562373
  0
VERTEX
  8
0
 10
85.0
 20
45.0
 30
0.0
  0
VERTEX
  8
0
 10
85.0
 20
-45.0
 30
0.0
 42
-0.414213562373
  0
VERTEX
  8
0
 10
80.0
 20
-50.0
 30
0.0
  0
VERTEX
  8
0
 10
-80.0
 20
-50.0
 30
0.0
 42
-0.414213562373
  0
SEQEND
  8
0
  0
CIRCLE
  8
0
 62
7
 10
-80.0
 20
45.0
 30
0.0
 40
1.5
  0
CIRCLE
  8
0
 62
7
 10
80.0
 20
45.0
 30
0.0
 40
1.5
  0
CIRCLE
  8
0
 62
7
 10
80.0
 20
-45.0
 30
0.0
 40
1.5
  0
CIRCLE
  8
0
 62
7
 10
-80.0
 20
-45.0
 30
0.0
 40
1.5
  0
POLYLINE
  8
0
 62
7
 70
1
 66
1
 10
0.0
 20
0.0
 30
0.0
  0
VERTEX
  8
0
 10
-63.2009499203
 20
-7.15277361123
 30
0.0
  0
VERTEX
  8
0
 10
-59.4009499203
 20
-7.82281613792
 30
0.0
 42
-0.363970234266
  0
VERTEX
  8
0
 10
-57.1698
 20
-10.4817970711
 30
0.0
  0
VERTEX
  8
0
 10
-57.1698
 20
-21.6417120177
 30
0.0
 42
-0.363970234266
  0
VERTEX
  8
0
 10
-59.4009499203
 20
-24.3006929508
 30
0.0
  0
VERTEX
  8
0
 10
-63.2009499203
 20
-24.9707354775
 30
0.0
 42
-0.466307658155
  0
VERTEX
  8
0
 10
-66.3698
 20
-22.3117545444
 30
0.0
  0
VERTEX
  8
0
 10
-66.3698
 20
-9.81175454436
 30
0.0
 42
-0.466307658155
  0
SEQEND
  8
0
  0
CIRCLE
  8
0
 62
7
 10
-61.7698
 20
-3.6506
 30
0.0
 40
1.5
  0
CIRCLE
  8
0
 62
7
 10
-61.7698
 20
-28.6506
 30
0.0
 40
1.5
  0
CIRCLE
  8
0
 62
7
 10
-61.7698
 20
21.3494
 30
0.0
 40
8.0
  0
CIRCLE
  8
0
 62
7
 10
0.0
 20
45.0
 30
0.0
 40
1.5
  0
CIRCLE
  8
0
 62
7
 10
0.0
 20
-45.0
 30
0.0
 40
1.5
  0
CIRCLE
  8
0
 62
7
 10
-30.8849
 20
21.3494
 30
0.0
 40
8.0
  0
CIRCLE
  8
0
 62
7
 10
-3.5527136788e-15
 20
21.3494
 30
0.0
 40
8.0
  0
CIRCLE
  8
0
 62
7
 10
30.8849
 20
21.3494
 30
0.0
 40
8.0
  0
CIRCLE
  8
0
 62
7
 10
61.7698
 20
21.3494
 30
0.0
 40
10.0
  0
CIRCLE
  8
0
 62
7
 10
61.7698
 20
-15.6506
 30
0.0
 40
1.0
  0
POLYLINE
  8
0
 62
7
 70
1
 66
1
 10
0.0
 20
0.0
 30
0.0
  0
VERTEX
  8
0
 10
-32.3160499203
 20
-7.15277392472
 30
0.0
  0
VERTEX
  8
0
 10
-28.5160499203
 20
-7.82281645141
 30
0.0
 42
-0.363970234266
  0
VERTEX
  8
0
 10
-26.2849
 20
-10.4817973845
 30
0.0
  0
VERTEX
  8
0
 10
-26.2849
 20
-21.6417123312
 30
0.0
 42
-0.363970234266
  0
VERTEX
  8
0
 10
-28.5160499203
 20
-24.3006932643
 30
0.0
  0
VERTEX
  8
0
 10
-32.3160499203
 20
-24.970735791
 30
0.0
 42
-0.466307658155
  0
VERTEX
  8
0
 10
-35.4849
 20
-22.3117548579
 30
0.0
  0
VERTEX
  8
0
 10
-35.4849
 20
-9.81175485785
 30
0.0
 42
-0.466307658155
  0
SEQEND
  8
0
  0
CIRCLE
  8
0
 62
7
 10
-30.8849
 20
-3.6506
 30
0.0
 40
1.5
  0
CIRCLE
  8
0
 62
7
 10
-30.8849
 20
-28.6506
 30
0.0
 40
1.5
  0
POLYLINE
  8
0
 62
7
 70
1
 66
1
 10
0.0
 20
0.0
 30
0.0
  0
VERTEX
  8
0
 10
-1.4311499203
 20
-7.15277376235
 30
0.0
  0
VERTEX
  8
0
 10
2.3688500797
 20
-7.82281628904
 30
0.0
 42
-0.363970234266
  0
VERTEX
  8
0
 10
4.6
 20
-10.4817972222
 30
0.0
  0
VERTEX
  8
0
 10
4.6
 20
-21.6417121688
 30
0.0
 42
-0.363970234266
  0
VERTEX
  8
0
 10
2.3688500797
 20
-24.3006931019
 30
0.0
  0
VERTEX
  8
0
 10
-1.4311499203
 20
-24.9707356286
 30
0.0
 42
-0.466307658155
  0
VERTEX
  8
0
 10
-4.6
 20
-22.3117546955
 30
0.0
  0
VERTEX
  8
0
 10
-4.6
 20
-9.81175469548
 30
0.0
 42
-0.466307658155
  0
SEQEND
  8
0
  0
CIRCLE
  8
0
 62
7
 10
-3.5527136788e-15
 20
-3.6506
 30
0.0
 40
1.5
  0
CIRCLE
  8
0
 62
7
 10
-3.5527136788e-15
 20
-28.6506
 30
0.0
 40
1.5
  0
POLYLINE
  8
0
 62
7
 70
1
 66
1
 10
0.0
 20
0.0
 30
0.0
  0
VERTEX
  8
0
 10
29.4537500797
 20
-7.15277393432
 30
0.0
  0
VERTEX
  8
0
 10
33.2537500797
 20
-7.82281646101
 30
0.0
 42
-0.363970234266
  0
VERTEX
  8
0
 10
35.4849
 20
-10.4817973941
 30
0.0
  0
VERTEX
  8
0
 10
35.4849
 20
-21.6417123408
 30
0.0
 42
-0.363970234266
  0
VERTEX
  8
0
 10
33.2537500797
 20
-24.3006932739
 30
0.0
  0
VERTEX
  8
0
 10
29.4537500797
 20
-24.9707358006
 30
0.0
 42
-0.466307658155
  0
VERTEX
  8
0
 10
26.2849
 20
-22.3117548675
 30
0.0
  0
VERTEX
  8
0
 10
26.2849
 20
-9.81175486746
 30
0.0
 42
-0.466307658155
  0
SEQEND
  8
0
  0
CIRCLE
  8
0
 62
7
 10
30.8849
 20
-3.6506
 30
0.0
 40
1.5
  0
CIRCLE
  8
0
 62
7
 10
30.8849
 20
-28.6506
 30
0.0
 40
1.5
  0
ENDBLK
  0
ENDSEC
  0
SECTION
  2
ENTITIES
  0
INSERT
  2
SKETCH
  8
0
 62
7
 10
0.0
 20
0.0
 30
0.0
  0
ENDSEC
  0
EOF
