  0
SECTION
  2
HEADER
  9
$ACADVER
  1
AC1009
  9
$INSBASE
 10
0.0
 20
0.0
 30
0.0
  9
$EXTMIN
 10
0.0
 20
0.0
 30
0.0
  9
$EXTMAX
 10
0.0
 20
0.0
 30
0.0
  0
ENDSEC
  0
SECTION
  2
TABLES
  0
TABLE
  2
VPORT
 70
0
  0
ENDTAB
  0
TABLE
  2
LTYPE
 70
1
  0
LTYPE
  2
CONTINUOUS
 70
0
  3
Solid line
 72
65
 73
0
 40
0.0
  0
ENDTAB
  0
TABLE
  2
LAYER
 70
1
  0
LAYER
  2
0
 70
64
 62
7
  6
continuous
  0
ENDTAB
  0
TABLE
  2
STYLE
 70
1
  0
STYLE
  2
STANDARD
 70
0
 40
0
 41
1.0
 50
0.0
 71
0
 42
1
 3
ARIAL.TTF
 4

  0
ENDTAB
  0
TABLE
  2
VIEW
 70
0
  0
ENDTAB
  0
ENDSEC
  0
SECTION
  2
BLOCKS
  0
BLOCK
  8
0
  2
SKETCH
 70
0
 10
0.0
 20
0.0
 30
0.0
  3
SKETCH
  0
POLYLINE
  8
0
 62
7
 70
1
 66
1
 10
0.0
 20
0.0
 30
0.0
  0
VERTEX
  8
0
 10
-85.0
 20
50.0
 30
0.0
  0
VERTEX
  8
0
 10
85.0
 20
50.0
 30
0.0
  0
VERTEX
  8
0
 10
85.0
 20
-50.0
 30
0.0
  0
VERTEX
  8
0
 10
-85.0
 20
-50.0
 30
0.0
  0
SEQEND
  8
0
  0
CIRCLE
  8
0
 62
7
 10
-80.0
 20
45.0
 30
0.0
 40
1.6
  0
CIRCLE
  8
0
 62
7
 10
80.0
 20
45.0
 30
0.0
 40
1.6
  0
CIRCLE
  8
0
 62
7
 10
80.0
 20
-45.0
 30
0.0
 40
1.6
  0
CIRCLE
  8
0
 62
7
 10
-80.0
 20
-45.0
 30
0.0
 40
1.6
  0
POLYLINE
  8
0
 62
7
 70
1
 66
1
 10
0.0
 20
0.0
 30
0.0
  0
VERTEX
  8
0
 10
-62.1433428647
 20
-7.6506
 30
0.0
  0
VERTEX
  8
0
 10
-59.8433428647
 20
-8.26688314259
 30
0.0
 42
-0.339454258863
  0
VERTEX
  8
0
 10
-57.6198
 20
-11.1646606215
 30
0.0
  0
VERTEX
  8
0
 10
-57.6198
 20
-21.1365393785
 30
0.0
 42
-0.339454258863
  0
VERTEX
  8
0
 10
-59.8433428647
 20
-24.0343168574
 30
0.0
  0
VERTEX
  8
0
 10
-62.1433428647
 20
-24.6506
 30
0.0
 42
-0.493145426031
  0
VERTEX
  8
0
 10
-65.9198
 20
-21.7528225211
 30
0.0
  0
VERTEX
  8
0
 10
-65.9198
 20
-10.5483774789
 30
0.0
 42
-0.493145426031
  0
SEQEND
  8
0
  0
CIRCLE
  8
0
 62
7
 10
-61.7698
 20
-3.6506
 30
0.0
 40
1.5
  0
CIRCLE
  8
0
 62
7
 10
-61.7698
 20
-28.6506
 30
0.0
 40
1.5
  0
CIRCLE
  8
0
 62
7
 10
-61.7698
 20
21.3494
 30
0.0
 40
8.0
  0
CIRCLE
  8
0
 62
7
 10
0.0
 20
45.0
 30
0.0
 40
1.6
  0
CIRCLE
  8
0
 62
7
 10
0.0
 20
-45.0
 30
0.0
 40
1.6
  0
POLYLINE
  8
0
 62
7
 70
1
 66
1
 10
0.0
 20
0.0
 30
0.0
  0
VERTEX
  8
0
 10
-31.2584428647
 20
-7.6506
 30
0.0
  0
VERTEX
  8
0
 10
-28.9584428647
 20
-8.26688314259
 30
0.0
 42
-0.339454258863
  0
VERTEX
  8
0
 10
-26.7349
 20
-11.1646606215
 30
0.0
  0
VERTEX
  8
0
 10
-26.7349
 20
-21.1365393785
 30
0.0
 42
-0.339454258863
  0
VERTEX
  8
0
 10
-28.9584428647
 20
-24.0343168574
 30
0.0
  0
VERTEX
  8
0
 10
-31.2584428647
 20
-24.6506
 30
0.0
 42
-0.493145426031
  0
VERTEX
  8
0
 10
-35.0349
 20
-21.7528225211
 30
0.0
  0
VERTEX
  8
0
 10
-35.0349
 20
-10.5483774789
 30
0.0
 42
-0.493145426031
  0
SEQEND
  8
0
  0
CIRCLE
  8
0
 62
7
 10
-30.8849
 20
-3.6506
 30
0.0
 40
1.5
  0
CIRCLE
  8
0
 62
7
 10
-30.8849
 20
-28.6506
 30
0.0
 40
1.5
  0
CIRCLE
  8
0
 62
7
 10
-30.8849
 20
21.3494
 30
0.0
 40
8.0
  0
POLYLINE
  8
0
 62
7
 70
1
 66
1
 10
0.0
 20
0.0
 30
0.0
  0
VERTEX
  8
0
 10
-0.373542864693
 20
-7.6506
 30
0.0
  0
VERTEX
  8
0
 10
1.92645713531
 20
-8.26688314259
 30
0.0
 42
-0.339454258863
  0
VERTEX
  8
0
 10
4.15
 20
-11.1646606215
 30
0.0
  0
VERTEX
  8
0
 10
4.15
 20
-21.1365393785
 30
0.0
 42
-0.339454258863
  0
VERTEX
  8
0
 10
1.92645713531
 20
-24.0343168574
 30
0.0
  0
VERTEX
  8
0
 10
-0.373542864692
 20
-24.6506
 30
0.0
 42
-0.493145426031
  0
VERTEX
  8
0
 10
-4.15
 20
-21.7528225211
 30
0.0
  0
VERTEX
  8
0
 10
-4.15
 20
-10.5483774789
 30
0.0
 42
-0.493145426031
  0
SEQEND
  8
0
  0
CIRCLE
  8
0
 62
7
 10
-3.5527136788e-15
 20
-3.6506
 30
0.0
 40
1.5
  0
CIRCLE
  8
0
 62
7
 10
-3.5527136788e-15
 20
-28.6506
 30
0.0
 40
1.5
  0
CIRCLE
  8
0
 62
7
 10
-3.5527136788e-15
 20
21.3494
 30
0.0
 40
8.0
  0
POLYLINE
  8
0
 62
7
 70
1
 66
1
 10
0.0
 20
0.0
 30
0.0
  0
VERTEX
  8
0
 10
30.5113571353
 20
-7.6506
 30
0.0
  0
VERTEX
  8
0
 10
32.8113571353
 20
-8.26688314259
 30
0.0
 42
-0.339454258863
  0
VERTEX
  8
0
 10
35.0349
 20
-11.1646606215
 30
0.0
  0
VERTEX
  8
0
 10
35.0349
 20
-21.1365393785
 30
0.0
 42
-0.339454258863
  0
VERTEX
  8
0
 10
32.8113571353
 20
-24.0343168574
 30
0.0
  0
VERTEX
  8
0
 10
30.5113571353
 20
-24.6506
 30
0.0
 42
-0.493145426031
  0
VERTEX
  8
0
 10
26.7349
 20
-21.7528225211
 30
0.0
  0
VERTEX
  8
0
 10
26.7349
 20
-10.5483774789
 30
0.0
 42
-0.493145426031
  0
SEQEND
  8
0
  0
CIRCLE
  8
0
 62
7
 10
30.8849
 20
-3.6506
 30
0.0
 40
1.5
  0
CIRCLE
  8
0
 62
7
 10
30.8849
 20
-28.6506
 30
0.0
 40
1.5
  0
CIRCLE
  8
0
 62
7
 10
30.8849
 20
21.3494
 30
0.0
 40
8.0
  0
CIRCLE
  8
0
 62
7
 10
61.7698
 20
21.3494
 30
0.0
 40
10.0
  0
CIRCLE
  8
0
 62
7
 10
61.7698
 20
-15.6506
 30
0.0
 40
1.0
  0
ENDBLK
  0
ENDSEC
  0
SECTION
  2
ENTITIES
  0
INSERT
  2
SKETCH
  8
0
 62
7
 10
0.0
 20
0.0
 30
0.0
  0
ENDSEC
  0
EOF
